<svg width="25" height="25" viewBox="0 0 25 25" fill="none" xmlns="http://www.w3.org/2000/svg">
<path d="M21 12.5C21 7.8 17.2 4 12.5 4C7.8 4 4 7.8 4 12.5C4 17.2 7.8 21 12.5 21C17.2 21 21 17.2 21 12.5ZM5 12.5C5 8.35 8.35 5 12.5 5C16.65 5 20 8.35 20 12.5C20 16.65 16.65 20 12.5 20C8.35 20 5 16.65 5 12.5Z" fill="white"/>
<path d="M13.3498 16.6499L9.1998 12.4999L13.3498 8.3499L12.6498 7.6499L7.7998 12.4999L12.6498 17.3499L13.3498 16.6499Z" fill="white"/>
<path d="M8.5 12V13H17V12H8.5Z" fill="white"/>
</svg>
