<svg width="24" height="24" viewBox="0 0 24 24" fill="none" xmlns="http://www.w3.org/2000/svg">
<path d="M13.9229 3V6M18.8953 5L16.9063 7M20.8843 10H17.9008" stroke="#F8FAFF" stroke-width="1.5" stroke-linecap="round" stroke-linejoin="round"/>
<path d="M9.10772 5.71223L8.70729 4.80625C8.44546 4.21388 8.31454 3.91768 8.11875 3.69101C7.87338 3.40694 7.55355 3.19794 7.19573 3.08785C6.91022 3 6.58789 3 5.94321 3C5.00014 3 4.52859 3 4.13276 3.18229C3.66648 3.39702 3.24538 3.86328 3.07761 4.3506C2.93518 4.76429 2.97597 5.18943 3.05757 6.0397C3.92609 15.0902 8.86065 20.0521 17.8613 20.9254C18.7069 21.0075 19.1296 21.0485 19.5411 20.9053C20.0257 20.7366 20.4894 20.3131 20.7029 19.8443C20.8842 19.4462 20.8842 18.9721 20.8842 18.0238C20.8842 17.3755 20.8842 17.0514 20.7969 16.7643C20.6874 16.4045 20.4796 16.0829 20.197 15.8362C19.9716 15.6393 19.677 15.5077 19.0879 15.2444L18.187 14.8417C17.5489 14.5566 17.23 14.4141 16.9058 14.3831C16.5956 14.3534 16.2828 14.3972 15.9924 14.5109C15.689 14.6297 15.4208 14.8544 14.8845 15.3038C14.3505 15.7512 14.0836 15.9749 13.7574 16.0947C13.4683 16.2009 13.086 16.2403 12.7814 16.1951C12.4379 16.1442 12.1748 16.0029 11.6487 15.7201C10.0117 14.8405 9.10899 13.9328 8.23417 12.2867C7.95301 11.7577 7.81243 11.4931 7.7618 11.1477C7.71692 10.8414 7.75604 10.457 7.86167 10.1663C7.98083 9.83828 8.20329 9.56986 8.64821 9.033C9.09516 8.49368 9.31864 8.22402 9.4368 7.91891C9.54987 7.62694 9.59339 7.3124 9.56388 7.00048C9.53305 6.67452 9.39128 6.35376 9.10772 5.71223Z" stroke="#F8FAFF" stroke-width="1.5" stroke-linecap="round"/>
</svg>
