<svg width="16" height="16" viewBox="0 0 16 16" fill="none" xmlns="http://www.w3.org/2000/svg">
<path d="M3.71342 5.25798C3.52292 4.00098 4.40992 2.86998 5.76492 2.45498C6.0055 2.38134 6.26512 2.40227 6.49081 2.51349C6.71649 2.6247 6.89124 2.81783 6.97942 3.05348L7.41392 4.21348C7.48378 4.40007 7.4963 4.60328 7.44989 4.79705C7.40347 4.99081 7.30024 5.16629 7.15342 5.30098L5.86092 6.48648C5.79705 6.54495 5.74947 6.61901 5.72282 6.7014C5.69618 6.78379 5.69139 6.87168 5.70892 6.95648L5.72042 7.00848L5.75242 7.13898C5.78092 7.24898 5.82392 7.40398 5.88442 7.58898C6.00442 7.95648 6.19592 8.45048 6.48092 8.94398C6.76592 9.43748 7.09792 9.85048 7.35592 10.138C7.4904 10.2876 7.63085 10.4317 7.77692 10.57L7.81692 10.607C7.88157 10.6642 7.95994 10.7038 8.04441 10.7217C8.12888 10.7397 8.21656 10.7355 8.29892 10.7095L9.97192 10.183C10.162 10.1232 10.3656 10.1216 10.5566 10.1784C10.7476 10.2351 10.9173 10.3476 11.0439 10.5015L11.8354 11.4625C12.1654 11.8625 12.1264 12.4505 11.7469 12.804C10.7099 13.7705 9.28392 13.969 8.29192 13.171C7.07628 12.19 6.05126 10.994 5.26792 9.64248C4.47883 8.29147 3.95145 6.80434 3.71342 5.25798ZM6.75642 7.02198L7.82942 6.03798C8.12306 5.76859 8.32953 5.41763 8.42236 5.03011C8.51518 4.64259 8.49013 4.23617 8.35042 3.86298L7.91542 2.70298C7.73795 2.22904 7.38642 1.84063 6.93249 1.61691C6.47855 1.39319 5.95638 1.35102 5.47242 1.49898C3.78992 2.01448 2.43892 3.52298 2.72492 5.40748C2.98165 7.07843 3.55109 8.686 4.40342 10.146C5.24832 11.6034 6.35384 12.8932 7.66492 13.951C9.15242 15.146 11.1394 14.7385 12.4289 13.536C12.7981 13.1922 13.0221 12.7205 13.0553 12.2171C13.0885 11.7138 12.9283 11.2167 12.6074 10.8275L11.8159 9.86648C11.5626 9.55869 11.2232 9.3336 10.8411 9.2201C10.459 9.1066 10.0517 9.10987 9.67142 9.22948L8.28292 9.66648C8.22075 9.60257 8.1599 9.53739 8.10042 9.47098C7.81496 9.15536 7.56248 8.81141 7.34692 8.44448C7.13682 8.07428 6.9651 7.68358 6.83442 7.27848C6.80666 7.19369 6.78066 7.10834 6.75642 7.02248" fill="white"/>
</svg>
