<svg width="24" height="24" viewBox="0 0 24 24" fill="none" xmlns="http://www.w3.org/2000/svg">
<path d="M6.96171 6.00098C5.74779 6.00464 5.07598 6.03384 4.52394 6.26683C3.7507 6.59318 3.12099 7.19601 2.75313 7.96208C2.45287 8.58736 2.40374 9.38848 2.30546 10.9907L2.15148 13.5014C1.9071 17.4858 1.78491 19.478 2.94763 20.7392C4.11035 22.0004 6.06918 22.0004 9.98687 22.0004H13.8815C17.7992 22.0004 19.7579 22.0004 20.9207 20.7392C22.0834 19.478 21.9612 17.4858 21.7169 13.5014L21.5628 10.9907C21.4646 9.38848 21.4154 8.58736 21.1152 7.96208C20.7474 7.19601 20.1176 6.59318 19.3444 6.26683C18.7924 6.03384 18.1205 6.00464 16.9066 6.00098" stroke="white" stroke-width="1.5" stroke-linecap="round"/>
<path d="M16.9063 7L16.0254 4.78543C15.6453 3.82996 15.3145 2.7461 14.3372 2.25955C13.8159 2 13.1885 2 11.9339 2C10.6792 2 10.0519 2 9.53054 2.25955C8.55321 2.7461 8.22245 3.82996 7.84238 4.78543L6.96143 7" stroke="white" stroke-width="1.5" stroke-linecap="round" stroke-linejoin="round"/>
<path d="M15.4146 14C15.4146 15.933 13.8562 17.5 11.9338 17.5C10.0115 17.5 8.45312 15.933 8.45312 14C8.45312 12.067 10.0115 10.5 11.9338 10.5C13.8562 10.5 15.4146 12.067 15.4146 14Z" stroke="white" stroke-width="1.5"/>
<path d="M11.9336 6H11.9426" stroke="white" stroke-width="2" stroke-linecap="round" stroke-linejoin="round"/>
</svg>
