<svg width="24" height="24" viewBox="0 0 24 24" fill="none" xmlns="http://www.w3.org/2000/svg">
<path d="M21.2191 22.2797C21.2888 22.3494 21.3716 22.4047 21.4627 22.4425C21.5538 22.4802 21.6514 22.4996 21.7501 22.4996C21.8487 22.4996 21.9463 22.4802 22.0374 22.4425C22.1285 22.4047 22.2113 22.3494 22.2811 22.2797C22.3508 22.21 22.4061 22.1272 22.4438 22.0361C22.4816 21.945 22.501 21.8473 22.501 21.7487C22.501 21.6501 22.4816 21.5524 22.4438 21.4613C22.4061 21.3702 22.3508 21.2874 22.2811 21.2177L2.78105 1.71919C2.64042 1.57836 2.4496 1.49916 2.25058 1.49902C2.05156 1.49888 1.86063 1.57781 1.7198 1.71844C1.57897 1.85907 1.49977 2.04989 1.49963 2.24891C1.49949 2.44793 1.57842 2.63886 1.71905 2.77969L5.08205 6.14269C4.47737 6.33704 3.94998 6.7183 3.57583 7.23155C3.20167 7.74479 3.00007 8.36354 3.00005 8.99869V16.4987C3.00005 17.2943 3.31612 18.0574 3.87873 18.62C4.44134 19.1826 5.2044 19.4987 6.00005 19.4987H18.0001C18.1401 19.4987 18.2766 19.4887 18.4096 19.4687L21.2191 22.2797ZM16.9381 18.0002H6.00005C5.60223 18.0002 5.2207 17.8422 4.93939 17.5608C4.65809 17.2795 4.50005 16.898 4.50005 16.5002V9.00019C4.50005 8.60237 4.65809 8.22083 4.93939 7.93953C5.2207 7.65823 5.60223 7.50019 6.00005 7.50019H6.43805L8.33255 9.39469C7.71699 10.2615 7.42818 11.3182 7.5173 12.3775C7.60643 13.4369 8.06775 14.4305 8.81948 15.1823C9.57122 15.934 10.5648 16.3953 11.6242 16.4844C12.6836 16.5736 13.7403 16.2848 14.6071 15.6692L16.9381 18.0002ZM9.41555 10.4762L13.5241 14.5847C12.9512 14.9218 12.2827 15.059 11.6234 14.975C10.964 14.891 10.3513 14.5904 9.88134 14.1204C9.41136 13.6504 9.11077 13.0377 9.02673 12.3784C8.9427 11.7191 9.07999 11.0505 9.41705 10.4777M18.0016 6.00019H16.9651L16.0876 4.24519C15.9007 3.87091 15.6132 3.55614 15.2574 3.33621C14.9015 3.11629 14.4914 2.99993 14.0731 3.00019H9.92705C9.50898 3.0002 9.09918 3.1167 8.74362 3.33661C8.38805 3.55652 8.10079 3.87114 7.91405 4.24519L7.75205 4.56919L8.86955 5.68669L9.25655 4.91419C9.3189 4.78977 9.41463 4.68515 9.53305 4.61204C9.65146 4.53892 9.78788 4.5002 9.92705 4.50019H14.0731C14.2122 4.5002 14.3486 4.53892 14.4671 4.61204C14.5855 4.68515 14.6812 4.78977 14.7436 4.91419L15.8296 7.08469C15.8919 7.20911 15.9876 7.31373 16.106 7.38685C16.2245 7.45996 16.3609 7.49869 16.5001 7.49869H18.0001C18.3979 7.49869 18.7794 7.65673 19.0607 7.93803C19.342 8.21933 19.5001 8.60087 19.5001 8.99869V16.3157L20.7856 17.6012C20.9206 17.2592 21.0016 16.8887 21.0016 16.5002V9.00019C21.0016 8.20454 20.6855 7.44148 20.1229 6.87887C19.5603 6.31626 18.7972 6.00019 18.0016 6.00019ZM16.3321 13.1492C16.4296 12.7802 16.4986 12.3992 16.4986 11.9987C16.4986 10.8052 16.0244 9.66062 15.1805 8.81671C14.3366 7.9728 13.192 7.49869 11.9986 7.49869C11.5981 7.49869 11.2186 7.56769 10.8481 7.66519L12.2011 9.01819C12.9214 9.06697 13.5996 9.37515 14.1101 9.88566C14.6206 10.3962 14.9288 11.0744 14.9776 11.7947L16.3321 13.1492Z" fill="white"/>
</svg>
