<svg width="51" height="51" viewBox="0 0 51 51" fill="none" xmlns="http://www.w3.org/2000/svg">
<path d="M8.35073 8.35073H14.6139L18.7893 4.17529H31.3156L35.4911 8.35073H41.7542C42.8616 8.35073 43.9237 8.79064 44.7067 9.57369C45.4898 10.3567 45.9297 11.4188 45.9297 12.5262V37.5788C45.9297 38.6862 45.4898 39.7482 44.7067 40.5313C43.9237 41.3143 42.8616 41.7542 41.7542 41.7542H8.35073C7.24334 41.7542 6.1813 41.3143 5.39825 40.5313C4.6152 39.7482 4.17529 38.6862 4.17529 37.5788V12.5262C4.17529 11.4188 4.6152 10.3567 5.39825 9.57369C6.1813 8.79064 7.24334 8.35073 8.35073 8.35073ZM25.0525 14.6139C22.284 14.6139 19.6289 15.7137 17.6713 17.6713C15.7137 19.6289 14.6139 22.284 14.6139 25.0525C14.6139 27.821 15.7137 30.4761 17.6713 32.4337C19.6289 34.3913 22.284 35.4911 25.0525 35.4911C27.821 35.4911 30.4761 34.3913 32.4337 32.4337C34.3913 30.4761 35.4911 27.821 35.4911 25.0525C35.4911 22.284 34.3913 19.6289 32.4337 17.6713C30.4761 15.7137 27.821 14.6139 25.0525 14.6139ZM25.0525 18.7893C26.7136 18.7893 28.3066 19.4492 29.4812 20.6238C30.6558 21.7983 31.3156 23.3914 31.3156 25.0525C31.3156 26.7136 30.6558 28.3066 29.4812 29.4812C28.3066 30.6558 26.7136 31.3156 25.0525 31.3156C23.3914 31.3156 21.7983 30.6558 20.6238 29.4812C19.4492 28.3066 18.7893 26.7136 18.7893 25.0525C18.7893 23.3914 19.4492 21.7983 20.6238 20.6238C21.7983 19.4492 23.3914 18.7893 25.0525 18.7893Z" fill="currentColor"/>
</svg>
