<svg width="28" height="28" viewBox="0 0 28 28" fill="none" xmlns="http://www.w3.org/2000/svg">
<rect width="27.1031" height="27.1031" rx="13.5515" fill="white"/>
<rect width="27.1031" height="27.1031" rx="13.5515" fill="url(#paint0_linear_1002_1384)"/>
<path d="M13.5517 6.49316C17.4499 6.49316 20.6098 9.65307 20.6098 13.5513C20.6098 17.4494 17.4499 20.6093 13.5517 20.6093C12.4099 20.6108 11.2849 20.3342 10.274 19.8033L7.24605 20.5917C7.14488 20.618 7.03857 20.6175 6.93768 20.5901C6.83678 20.5627 6.74479 20.5094 6.67083 20.4355C6.59686 20.3617 6.5435 20.2697 6.51601 20.1688C6.48852 20.068 6.48787 19.9617 6.51413 19.8605L7.30181 16.8333C6.76952 15.8213 6.49211 14.6947 6.49366 13.5513C6.49366 9.65307 9.65356 6.49316 13.5517 6.49316ZM14.4354 14.2571H11.2579L11.1859 14.262C11.0592 14.2794 10.9431 14.3421 10.859 14.4385C10.775 14.535 10.7287 14.6585 10.7287 14.7864C10.7287 14.9143 10.775 15.0379 10.859 15.1343C10.9431 15.2307 11.0592 15.2934 11.1859 15.3108L11.2579 15.3158H14.4354L14.5067 15.3108C14.6334 15.2934 14.7495 15.2307 14.8336 15.1343C14.9176 15.0379 14.9639 14.9143 14.9639 14.7864C14.9639 14.6585 14.9176 14.535 14.8336 14.4385C14.7495 14.3421 14.6334 14.2794 14.5067 14.262L14.4354 14.2571ZM15.8456 11.7867H11.2579L11.1859 11.7917C11.0592 11.8091 10.9431 11.8718 10.859 11.9682C10.775 12.0646 10.7287 12.1882 10.7287 12.3161C10.7287 12.444 10.775 12.5676 10.859 12.664C10.9431 12.7604 11.0592 12.8231 11.1859 12.8405L11.2579 12.8454H15.8456L15.9176 12.8405C16.0443 12.8231 16.1604 12.7604 16.2445 12.664C16.3285 12.5676 16.3748 12.444 16.3748 12.3161C16.3748 12.1882 16.3285 12.0646 16.2445 11.9682C16.1604 11.8718 16.0443 11.8091 15.9176 11.7917L15.8456 11.7867Z" fill="white"/>
<defs>
<linearGradient id="paint0_linear_1002_1384" x1="13.5515" y1="0" x2="13.5515" y2="27.1031" gradientUnits="userSpaceOnUse">
<stop stop-color="#AAAAAA"/>
<stop offset="1" stop-color="#FF43BB"/>
</linearGradient>
</defs>
</svg>
