<svg width="24" height="24" viewBox="0 0 24 24" fill="none" xmlns="http://www.w3.org/2000/svg">
<path d="M21 7.99983C21.5333 7.99983 22 8.19983 22.4 8.59983C22.8 8.99983 23 9.46649 23 9.99983V11.9998C23 12.1165 22.9873 12.2415 22.962 12.3748C22.9367 12.5082 22.8993 12.6332 22.85 12.7498L19.85 19.7998C19.7 20.1332 19.45 20.4165 19.1 20.6498C18.75 20.8832 18.3833 20.9998 18 20.9998H10C9.45 20.9998 8.97933 20.8042 8.588 20.4128C8.19667 20.0215 8.00067 19.5505 8 18.9998V8.82483C8 8.55816 8.05433 8.30416 8.163 8.06283C8.27167 7.82149 8.41733 7.60883 8.6 7.42483L14.025 2.02483C14.275 1.79149 14.571 1.64983 14.913 1.59983C15.255 1.54983 15.584 1.60816 15.9 1.77483C16.216 1.94149 16.4453 2.17483 16.588 2.47483C16.7307 2.77483 16.7597 3.08316 16.675 3.39983L15.55 7.99983H21ZM4 20.9998C3.45 20.9998 2.97933 20.8042 2.588 20.4128C2.19667 20.0215 2.00067 19.5505 2 18.9998V9.99983C2 9.44983 2.196 8.97916 2.588 8.58783C2.98 8.19649 3.45067 8.00049 4 7.99983C4.54933 7.99916 5.02033 8.19516 5.413 8.58783C5.80567 8.98049 6.00133 9.45116 6 9.99983V18.9998C6 19.5498 5.80433 20.0208 5.413 20.4128C5.02167 20.8048 4.55067 21.0005 4 20.9998Z" fill="white"/>
</svg>
