<svg width="12" height="12" viewBox="0 0 12 12" fill="none" xmlns="http://www.w3.org/2000/svg">
<path d="M5.95014 10.1157L5.75973 9.90151C5.64072 9.78251 2.85596 6.49792 2.85596 4.5224C2.85596 2.8087 4.23644 1.42822 5.95014 1.42822C7.66383 1.42822 9.04431 2.8087 9.04431 4.5224C9.04431 6.49792 6.25955 9.78251 6.14055 9.92531L5.95014 10.1157ZM5.95014 1.90425C4.49825 1.90425 3.33198 3.07052 3.33198 4.5224C3.33198 6.04569 5.3313 8.61624 5.95014 9.37788C6.56897 8.61624 8.56829 6.04569 8.56829 4.5224C8.56829 3.07052 7.40202 1.90425 5.95014 1.90425Z" fill="#FFFCFC"/>
<path d="M5.95032 5.71217C5.28388 5.71217 4.76025 5.18854 4.76025 4.5221C4.76025 3.85566 5.28388 3.33203 5.95032 3.33203C6.61676 3.33203 7.14039 3.85566 7.14039 4.5221C7.14039 5.18854 6.61676 5.71217 5.95032 5.71217ZM5.95032 3.80806C5.5457 3.80806 5.23628 4.11748 5.23628 4.5221C5.23628 4.92672 5.5457 5.23614 5.95032 5.23614C6.35495 5.23614 6.66436 4.92672 6.66436 4.5221C6.66436 4.11748 6.35495 3.80806 5.95032 3.80806Z" fill="#FFFCFC"/>
</svg>
