<svg width="174" height="34" viewBox="0 0 174 34" fill="none" xmlns="http://www.w3.org/2000/svg">
<rect width="174" height="34" rx="12" fill="white"/>
<rect width="174" height="34" rx="12" fill="url(#paint0_linear_1004_1903)"/>
<path d="M28.3897 9.90909H31.8031L35.4082 18.7045H35.5616L39.1667 9.90909H42.5801V23H39.8954V14.4794H39.7868L36.399 22.9361H34.5708L31.1831 14.4474H31.0744V23H28.3897V9.90909ZM44.8604 23V9.90909H53.6815V12.1911H47.6282V15.3104H53.2276V17.5923H47.6282V20.718H53.707V23H44.8604ZM66.8315 9.90909V23H64.4409L58.7456 14.7607H58.6497V23H55.8819V9.90909H58.3109L63.9615 18.142H64.0765V9.90909H66.8315ZM77.2042 9.90909H79.9719V18.4105C79.9719 19.3651 79.744 20.2003 79.288 20.9162C78.8363 21.6321 78.2035 22.1903 77.3896 22.5909C76.5756 22.9872 75.6275 23.1854 74.5451 23.1854C73.4585 23.1854 72.5082 22.9872 71.6942 22.5909C70.8803 22.1903 70.2475 21.6321 69.7958 20.9162C69.3441 20.2003 69.1183 19.3651 69.1183 18.4105V9.90909H71.886V18.174C71.886 18.6726 71.9947 19.1158 72.212 19.5036C72.4336 19.8913 72.7447 20.196 73.1452 20.4176C73.5458 20.6392 74.0124 20.75 74.5451 20.75C75.082 20.75 75.5487 20.6392 75.945 20.4176C76.3455 20.196 76.6545 19.8913 76.8718 19.5036C77.0934 19.1158 77.2042 18.6726 77.2042 18.174V9.90909Z" fill="white"/>
<path d="M130.6 23.4545V8.90909H131.532V23.4545H130.6ZM133.072 13.7102C133.026 13.2519 132.831 12.8958 132.487 12.642C132.142 12.3883 131.674 12.2614 131.083 12.2614C130.682 12.2614 130.343 12.3182 130.066 12.4318C129.79 12.5417 129.578 12.6951 129.43 12.892C129.286 13.089 129.214 13.3125 129.214 13.5625C129.206 13.7708 129.25 13.9527 129.345 14.108C129.443 14.2633 129.578 14.3977 129.748 14.5114C129.919 14.6212 130.115 14.7178 130.339 14.8011C130.562 14.8807 130.801 14.9489 131.055 15.0057L132.1 15.2557C132.608 15.3693 133.074 15.5208 133.498 15.7102C133.922 15.8996 134.29 16.1326 134.6 16.4091C134.911 16.6856 135.151 17.0114 135.322 17.3864C135.496 17.7614 135.585 18.1913 135.589 18.6761C135.585 19.3883 135.403 20.0057 135.044 20.5284C134.687 21.0473 134.172 21.4508 133.498 21.7386C132.828 22.0227 132.019 22.1648 131.072 22.1648C130.133 22.1648 129.314 22.0208 128.617 21.733C127.924 21.4451 127.383 21.0189 126.992 20.4545C126.606 19.8864 126.403 19.1837 126.384 18.3466H128.765C128.792 18.7367 128.903 19.0625 129.1 19.3239C129.301 19.5814 129.568 19.7765 129.901 19.9091C130.239 20.0379 130.619 20.1023 131.044 20.1023C131.46 20.1023 131.822 20.0417 132.129 19.9205C132.439 19.7992 132.68 19.6307 132.85 19.4148C133.021 19.1989 133.106 18.9508 133.106 18.6705C133.106 18.4091 133.028 18.1894 132.873 18.0114C132.722 17.8333 132.498 17.6818 132.203 17.5568C131.911 17.4318 131.553 17.3182 131.129 17.2159L129.862 16.8977C128.881 16.6591 128.106 16.286 127.538 15.7784C126.97 15.2708 126.687 14.5871 126.691 13.7273C126.687 13.0227 126.875 12.4072 127.254 11.8807C127.636 11.3542 128.161 10.9432 128.828 10.6477C129.494 10.3523 130.252 10.2045 131.1 10.2045C131.964 10.2045 132.718 10.3523 133.362 10.6477C134.009 10.9432 134.513 11.3542 134.873 11.8807C135.233 12.4072 135.419 13.017 135.43 13.7102H133.072ZM137.176 22V20.2273L141.318 16.392C141.67 16.0511 141.965 15.7443 142.204 15.4716C142.446 15.1989 142.63 14.9318 142.755 14.6705C142.88 14.4053 142.943 14.1193 142.943 13.8125C142.943 13.4716 142.865 13.178 142.71 12.9318C142.554 12.6818 142.342 12.4905 142.073 12.358C141.804 12.2216 141.499 12.1534 141.159 12.1534C140.802 12.1534 140.492 12.2254 140.227 12.3693C139.962 12.5133 139.757 12.7197 139.613 12.9886C139.469 13.2576 139.397 13.5777 139.397 13.9489H137.062C137.062 13.1875 137.234 12.5265 137.579 11.9659C137.924 11.4053 138.407 10.9716 139.028 10.6648C139.649 10.358 140.365 10.2045 141.176 10.2045C142.009 10.2045 142.734 10.3523 143.352 10.6477C143.973 10.9394 144.456 11.3447 144.801 11.8636C145.145 12.3826 145.318 12.9773 145.318 13.6477C145.318 14.0871 145.231 14.5208 145.056 14.9489C144.886 15.3769 144.581 15.8523 144.142 16.375C143.702 16.8939 143.083 17.517 142.284 18.2443L140.585 19.9091V19.9886H145.471V22H137.176Z" fill="white"/>
<path d="M95.748 11H106.748C107.848 11 108.748 11.9 108.748 13V21C108.748 22.1 107.848 23 106.748 23H95.748C94.648 23 93.748 22.1 93.748 21V13C93.748 11.9 94.648 11 95.748 11Z" fill="white"/>
<path d="M113.748 22.5L108.748 19.5V14.5L113.748 11.5V22.5Z" fill="white"/>
<defs>
<linearGradient id="paint0_linear_1004_1903" x1="0" y1="17" x2="174" y2="17" gradientUnits="userSpaceOnUse">
<stop stop-color="#F66AC3"/>
<stop offset="1" stop-color="#FD9AD9"/>
</linearGradient>
</defs>
</svg>
