<svg width="30" height="30" viewBox="0 0 30 30" fill="none" xmlns="http://www.w3.org/2000/svg">
<path d="M15 17.5C13.9583 17.5 13.0729 17.1354 12.3438 16.4062C11.6146 15.6771 11.25 14.7917 11.25 13.75V6.25C11.25 5.20833 11.6146 4.32292 12.3438 3.59375C13.0729 2.86458 13.9583 2.5 15 2.5C16.0417 2.5 16.9271 2.86458 17.6562 3.59375C18.3854 4.32292 18.75 5.20833 18.75 6.25V13.75C18.75 14.7917 18.3854 15.6771 17.6562 16.4062C16.9271 17.1354 16.0417 17.5 15 17.5ZM13.75 26.25V22.4062C11.5833 22.1146 9.79167 21.1458 8.375 19.5C6.95833 17.8542 6.25 15.9375 6.25 13.75H8.75C8.75 15.4792 9.35958 16.9533 10.5788 18.1725C11.7979 19.3917 13.2717 20.0008 15 20C16.7283 19.9992 18.2025 19.3896 19.4225 18.1712C20.6425 16.9529 21.2517 15.4792 21.25 13.75H23.75C23.75 15.9375 23.0417 17.8542 21.625 19.5C20.2083 21.1458 18.4167 22.1146 16.25 22.4062V26.25H13.75ZM15 15C15.3542 15 15.6513 14.88 15.8913 14.64C16.1313 14.4 16.2508 14.1033 16.25 13.75V6.25C16.25 5.89583 16.13 5.59917 15.89 5.36C15.65 5.12083 15.3533 5.00083 15 5C14.6467 4.99917 14.35 5.11917 14.11 5.36C13.87 5.60083 13.75 5.8975 13.75 6.25V13.75C13.75 14.1042 13.87 14.4013 14.11 14.6413C14.35 14.8813 14.6467 15.0008 15 15Z" fill="white"/>
</svg>
