<svg width="36" height="36" viewBox="0 0 36 36" fill="none" xmlns="http://www.w3.org/2000/svg">
<path d="M10.5814 16.1506H13.9413C14.1134 18.7386 15.4784 20.7514 17.2645 21.1028V28.403H12.2521C12.1044 28.403 11.9628 28.4616 11.8583 28.5661C11.7539 28.6705 11.6952 28.8122 11.6952 28.9599C11.6952 29.1076 11.7539 29.2492 11.8583 29.3537C11.9628 29.4581 12.1044 29.5168 12.2521 29.5168H23.3906C23.5383 29.5168 23.68 29.4581 23.7844 29.3537C23.8889 29.2492 23.9476 29.1076 23.9476 28.9599C23.9476 28.8122 23.8889 28.6705 23.7844 28.5661C23.68 28.4616 23.5383 28.403 23.3906 28.403H18.3783V21.1028C20.1644 20.7514 21.5288 18.7386 21.7015 16.1506H25.0614C26.2426 16.1493 27.3751 15.6795 28.2104 14.8442C29.0457 14.0089 29.5155 12.8765 29.5168 11.6952V6.6829C29.5168 6.5352 29.4581 6.39354 29.3537 6.2891C29.2492 6.18465 29.1076 6.12598 28.9599 6.12598H6.6829C6.5352 6.12598 6.39354 6.18465 6.2891 6.2891C6.18465 6.39354 6.12598 6.5352 6.12598 6.6829V11.6952C6.1273 12.8765 6.59714 14.0089 7.4324 14.8442C8.26766 15.6795 9.40014 16.1493 10.5814 16.1506ZM28.403 7.23983V11.0024C27.897 10.957 27.4021 10.8281 26.9382 10.6209C26.1663 10.3007 25.3388 10.1358 24.5031 10.1358C23.6674 10.1358 22.8399 10.3007 22.0679 10.6209C21.4332 10.9072 20.7418 11.046 20.0457 11.0269C19.3505 11.046 18.6599 10.9074 18.0258 10.6215C17.2602 10.2842 16.4301 10.1184 15.5937 10.1358C14.7566 10.1181 13.9257 10.2836 13.1594 10.6209C12.525 10.9072 11.834 11.046 11.1383 11.0269C10.443 11.046 9.7524 10.9074 9.11833 10.6215C8.52321 10.3609 7.88786 10.2042 7.23983 10.1581V7.23983H28.403ZM7.23983 11.2742C7.74519 11.3195 8.23956 11.4482 8.70287 11.6551C9.46948 11.9929 10.3008 12.1587 11.1383 12.1408C11.9754 12.1585 12.8063 11.993 13.5726 11.6557C14.207 11.3694 14.898 11.2306 15.5937 11.2497C16.289 11.2306 16.9796 11.3692 17.6137 11.6551C18.3798 11.9927 19.2105 12.1584 20.0474 12.1408C20.8849 12.1585 21.7161 11.993 22.4829 11.6557C23.1174 11.3694 23.8086 11.2306 24.5045 11.2497C25.2006 11.2306 25.8919 11.3694 26.5267 11.6557C27.1127 11.9116 27.7375 12.0673 28.3751 12.1163C28.2727 12.9229 27.8796 13.6645 27.2696 14.2021C26.6596 14.7397 25.8745 15.0365 25.0614 15.0368H21.1629C21.0152 15.0368 20.8736 15.0954 20.7691 15.1999C20.6647 15.3043 20.606 15.446 20.606 15.5937C20.606 18.0085 19.3307 20.0491 17.8214 20.0491C16.3121 20.0491 15.0368 18.0085 15.0368 15.5937C15.0368 15.446 14.9781 15.3043 14.8737 15.1999C14.7692 15.0954 14.6276 15.0368 14.4798 15.0368H10.5814C9.69546 15.0357 8.84612 14.6834 8.21968 14.0569C7.59324 13.4305 7.24086 12.5811 7.23983 11.6952V11.2742Z" fill="#93025F"/>
</svg>
