<svg width="25" height="24" viewBox="0 0 25 24" fill="none" xmlns="http://www.w3.org/2000/svg">
<path d="M2.54425 14.7696C2.33041 16.1636 3.28644 17.1312 4.45698 17.6134C8.9446 19.4622 15.1896 19.4622 19.6771 17.6134C20.8477 17.1312 21.8037 16.1636 21.5899 14.7696C21.4585 13.9129 20.8087 13.1995 20.3272 12.5029C19.6967 11.5793 19.634 10.5718 19.6339 9.5C19.6339 5.35786 16.2461 2 12.0671 2C7.88806 2 4.50029 5.35786 4.50029 9.5C4.50019 10.5718 4.43754 11.5793 3.80693 12.5029C3.3255 13.1995 2.67567 13.9129 2.54425 14.7696Z" stroke="white" stroke-width="1.5" stroke-linecap="round" stroke-linejoin="round"/>
<path d="M8.04443 19C8.50548 20.7252 10.1315 22 12.0667 22C14.0019 22 15.6279 20.7252 16.089 19" stroke="white" stroke-width="1.5" stroke-linecap="round" stroke-linejoin="round"/>
</svg>
