<svg width="22" height="22" viewBox="0 0 22 22" fill="none" xmlns="http://www.w3.org/2000/svg">
<path fill-rule="evenodd" clip-rule="evenodd" d="M11.0002 20.1668C5.93741 20.1668 1.8335 16.0629 1.8335 11.0002C1.8335 5.93741 5.93741 1.8335 11.0002 1.8335C16.0629 1.8335 20.1668 5.93741 20.1668 11.0002C20.1668 16.0629 16.0629 20.1668 11.0002 20.1668ZM14.6668 11.9168C14.6668 12.8893 14.2805 13.8219 13.5929 14.5096C12.9053 15.1972 11.9726 15.5835 11.0002 15.5835C10.0277 15.5835 9.09507 15.1972 8.40744 14.5096C7.7198 13.8219 7.3335 12.8893 7.3335 11.9168H14.6668ZM11.0002 18.3335C12.9451 18.3335 14.8103 17.5609 16.1856 16.1856C17.5609 14.8103 18.3335 12.9451 18.3335 11.0002C18.3335 9.05524 17.5609 7.18998 16.1856 5.81471C14.8103 4.43945 12.9451 3.66683 11.0002 3.66683C9.05524 3.66683 7.18998 4.43945 5.81471 5.81471C4.43945 7.18998 3.66683 9.05524 3.66683 11.0002C3.66683 12.9451 4.43945 14.8103 5.81471 16.1856C7.18998 17.5609 9.05524 18.3335 11.0002 18.3335ZM8.7085 10.0835C9.07317 10.0835 9.42291 9.93863 9.68077 9.68077C9.93863 9.42291 10.0835 9.07317 10.0835 8.7085C10.0835 8.34382 9.93863 7.99409 9.68077 7.73622C9.42291 7.47836 9.07317 7.3335 8.7085 7.3335C8.34382 7.3335 7.99409 7.47836 7.73622 7.73622C7.47836 7.99409 7.3335 8.34382 7.3335 8.7085C7.3335 9.07317 7.47836 9.42291 7.73622 9.68077C7.99409 9.93863 8.34382 10.0835 8.7085 10.0835ZM13.2918 10.0835C13.6565 10.0835 14.0062 9.93863 14.2641 9.68077C14.522 9.42291 14.6668 9.07317 14.6668 8.7085C14.6668 8.34382 14.522 7.99409 14.2641 7.73622C14.0062 7.47836 13.6565 7.3335 13.2918 7.3335C12.9272 7.3335 12.5774 7.47836 12.3196 7.73622C12.0617 7.99409 11.9168 8.34382 11.9168 8.7085C11.9168 9.07317 12.0617 9.42291 12.3196 9.68077C12.5774 9.93863 12.9272 10.0835 13.2918 10.0835Z" fill="white"/>
</svg>
