<svg width="24" height="24" viewBox="0 0 24 24" fill="none" xmlns="http://www.w3.org/2000/svg">
<path d="M13.9229 14.8135V9.18646C13.9229 6.04126 13.9229 4.46866 13.0027 4.0773C12.0825 3.68593 10.9994 4.79793 8.83342 7.02192C7.7117 8.17365 7.07171 8.42869 5.47574 8.42869C4.08 8.42869 3.38214 8.42869 2.88083 8.77262C1.84019 9.48655 1.99749 10.882 1.99749 12C1.99749 13.118 1.84019 14.5134 2.88083 15.2274C3.38214 15.5713 4.08 15.5713 5.47574 15.5713C7.07171 15.5713 7.7117 15.8264 8.83342 16.9781C10.9994 19.2021 12.0825 20.3141 13.0027 19.9227C13.9229 19.5313 13.9229 17.9587 13.9229 14.8135Z" stroke="white" stroke-width="1.5" stroke-linecap="round" stroke-linejoin="round"/>
<path d="M16.9062 9C17.5282 9.81968 17.9007 10.8634 17.9007 12C17.9007 13.1366 17.5282 14.1803 16.9062 15" stroke="white" stroke-width="1.5" stroke-linecap="round" stroke-linejoin="round"/>
<path d="M19.8899 7C21.1338 8.36613 21.8789 10.1057 21.8789 12C21.8789 13.8943 21.1338 15.6339 19.8899 17" stroke="white" stroke-width="1.5" stroke-linecap="round" stroke-linejoin="round"/>
</svg>
